Coordinates
version=1
nRows=8
nColumns=40
inDegrees=yes

Units are S.I. units (second, meters, Newtons, ...)
Angles are in degrees.

endheader
time	pelvis_tilt	pelvis_list	pelvis_rotation	pelvis_tx	pelvis_ty	pelvis_tz	hip_flexion_r	hip_adduction_r	hip_rotation_r	knee_angle_r	knee_angle_r_beta	ankle_angle_r	subtalar_angle_r	mtp_angle_r	hip_flexion_l	hip_adduction_l	hip_rotation_l	knee_angle_l	knee_angle_l_beta	ankle_angle_l	subtalar_angle_l	mtp_angle_l	lumbar_extension	lumbar_bending	lumbar_rotation	arm_flex_r	arm_add_r	arm_rot_r	elbow_flex_r	pro_sup_r	wrist_flex_r	wrist_dev_r	arm_flex_l	arm_add_l	arm_rot_l	elbow_flex_l	pro_sup_l	wrist_flex_l	wrist_dev_l
      0.29000000	     -5.74761420	      8.78621846	     -0.37954630	     -0.50329026	      0.95447577	     -1.42691740	     27.36708199	    -13.86711221	     -7.34842288	    -65.29350907	     -1.13958671	      1.32543903	    -17.67081214	     15.99353549	      8.77725190	     -7.77420505	     12.60257782	    -11.64986322	     -0.20332847	      3.40633998	      5.08650316	      3.86614271	      2.92711658	     -8.87857635	      1.57076359	     -0.90089205	     -8.88501216	    -13.79147482	     30.60573334	     89.95437384	      0.00000000	      0.00000000	     -3.98472665	     14.80625944	      1.38297091	     14.69405786	     89.95437384	      0.00000000	      0.00000000
      0.30000000	     -5.44235259	      7.79998970	      0.14458803	     -0.49140959	      0.95575006	     -1.42922724	     28.06109594	    -12.74146516	     -8.38551703	    -63.49997088	     -1.10828357	      1.94239009	    -17.24489615	     16.42556201	      7.15385116	     -6.81592220	     12.82896006	    -10.82300702	     -0.18889711	      3.18723624	      2.70285304	      2.37542109	      2.18541630	     -7.74088294	      0.09837150	     -0.80424370	     -9.13015098	    -12.52592140	     29.07853517	     89.95437384	      0.00000000	      0.00000000	     -2.55406795	     15.07963102	      5.15076456	     15.63243937	     89.95437384	      0.00000000	      0.00000000
      0.31000000	     -5.72650740	      7.63741051	      0.60220933	     -0.47994553	      0.95547932	     -1.43214716	     29.68585655	    -12.60987737	     -8.95205325	    -61.75849870	     -1.07788914	      2.34702423	    -16.86120361	     16.13748380	      6.45356824	     -6.87402188	     12.88785697	    -10.45380339	     -0.18245329	      3.60440537	      2.47404847	      2.19332862	      2.25726097	     -7.45186878	     -0.65476452	     -1.44225009	     -9.22465710	    -12.32403653	     28.44206155	     89.95437384	      0.00000000	      0.00000000	     -1.04277793	     15.83064742	      5.29056838	     16.71070062	     89.95437384	      0.00000000	      0.00000000
      0.32000000	     -5.25740069	      6.58992927	      1.69307090	     -0.46819489	      0.95643141	     -1.43522730	     29.77570652	    -11.90190818	    -10.81025267	    -59.28208067	     -1.03466750	      2.93351348	    -16.24707490	     15.97857206	      4.81377002	     -5.99092521	     11.51274393	     -9.83198679	     -0.17160054	      3.96627122	      1.69682656	      1.58740550	      1.32889552	     -6.25019656	     -2.42115278	     -1.41805789	     -9.28221036	    -12.24487887	     26.98776286	     89.95437384	      0.00000000	      0.00000000	      0.32869269	     16.42298351	      6.49879552	     18.12264681	     89.95437384	      0.00000000	      0.00000000
      0.33000000	     -5.13773061	      5.98057488	      2.45409141	     -0.45642381	      0.95629769	     -1.43790653	     30.43685702	    -11.49317596	    -12.02725019	    -56.73038716	     -0.99013204	      3.38010255	    -15.56524755	     15.69948931	      3.73100335	     -5.47098805	     10.98263393	     -9.52249546	     -0.16619890	      4.28324105	      1.13375077	      0.90025983	      0.90930683	     -5.48504634	     -3.64686456	     -1.80527177	     -9.44149897	    -11.79183092	     26.09821606	     89.95437384	      0.00000000	      0.00000000	      1.75894333	     17.09120126	      7.55160504	     19.35359035	     89.95437384	      0.00000000	      0.00000000
      0.34000000	     -5.39120090	      5.64940951	      3.09823391	     -0.44496953	      0.95522335	     -1.44050044	     31.61300340	    -11.27221602	    -12.69221624	    -54.09577247	     -0.94414934	      3.46876561	    -14.92372814	     15.49451370	      3.09366043	     -5.25855699	     10.46391323	     -9.25581177	     -0.16154439	      4.74995374	      0.66532324	      0.50409980	      0.95086353	     -5.05729060	     -4.58175765	     -2.24938167	     -9.50592217	    -11.77471763	     25.10995572	     89.95437384	      0.00000000	      0.00000000	      3.13091762	     17.83132229	      7.99639387	     20.72678142	     89.95437384	      0.00000000	      0.00000000
      0.35000000	     -5.67481230	      5.73348169	      3.56610607	     -0.43348491	      0.95365548	     -1.44302845	     32.85414001	    -11.51371771	    -13.20610725	    -51.42750535	     -0.89757929	      3.74880332	    -14.42074555	     15.25779720	      2.62142058	     -5.49437278	     10.52266956	     -9.26827738	     -0.16176196	      5.11079485	      0.53425365	      0.30710483	      1.03071986	     -5.06428381	     -5.21640345	     -2.92924909	     -9.62770759	    -11.68894579	     24.60096894	     89.95437384	      0.00000000	      0.00000000	      4.63658524	     18.60855802	      8.22225205	     21.94205178	     89.95437384	      0.00000000	      0.00000000
      0.36000000	     -4.94912384	      4.63719327	      4.64310916	     -0.42126978	      0.95392434	     -1.44545876	     32.10952028	    -10.81828467	    -15.17373332	    -47.63754411	     -0.83143199	      3.63617722	    -13.61146698	     15.26240700	      0.92535914	     -4.31318532	      9.25542984	     -9.01547009	     -0.15734964	      5.74036834	      0.06545649	     -0.69506640	      0.00660049	     -3.75446563	     -6.80730935	     -2.88949442	     -9.62115795	    -12.33110828	     23.14399608	     89.95437384	      0.00000000	      0.00000000	      5.97104450	     19.22367585	      9.28459925	     23.41276678	     89.95437384	      0.00000000	      0.00000000
